name rise32.9588peak41.5061fall63.4684.mot
datacolumns 19
datarows 27
range 15.00327300000000 15.04661000000000
endheader
time	ground_force1_vx	ground_force1_vy	ground_force1_vz	ground_force1_px	ground_force1_py	ground_force1_pz	ground_force2_vx	ground_force2_vy	ground_force2_vz	ground_force2_px	ground_force2_py	ground_force2_pz	ground_torque1_x	ground_torque1_y	ground_torque1_z	ground_torque2_x	ground_torque2_y	ground_torque2_z	
15.00327300000000	48.37126400000000	746.85000600000001	48.71822100000000	0.26526900000000	0.00000000000000	0.11521100000000	0.00000000000000	0.00000000000000	0.00000000000000	0.00000000000000	0.00000000000000	0.00000000000000	0.00000000000000	14.21148200000000	0.00000000000000	0.00000000000000	0.00000000000000	0.00000000000000	
15.00494600000000	47.83224200000000	749.41172700000004	48.77581400000000	0.26460800000000	0.00000000000000	0.11518300000000	0.00000000000000	0.00000000000000	0.00000000000000	0.00000000000000	0.00000000000000	0.00000000000000	0.00000000000000	14.25435500000000	0.00000000000000	0.00000000000000	0.00000000000000	0.00000000000000	
15.00660900000000	47.30274300000000	751.88586299999997	48.83685400000000	0.26397600000000	0.00000000000000	0.11515700000000	0.00000000000000	0.00000000000000	0.00000000000000	0.00000000000000	0.00000000000000	0.00000000000000	0.00000000000000	14.29916800000000	0.00000000000000	0.00000000000000	0.00000000000000	0.00000000000000	
15.00828000000000	46.78274400000000	754.26952500000004	48.90125400000000	0.26337100000000	0.00000000000000	0.11513200000000	0.00000000000000	0.00000000000000	0.00000000000000	0.00000000000000	0.00000000000000	0.00000000000000	0.00000000000000	14.34581600000000	0.00000000000000	0.00000000000000	0.00000000000000	0.00000000000000	
15.00994700000000	46.27213000000000	756.55985799999996	48.96886000000000	0.26279000000000	0.00000000000000	0.11510900000000	0.00000000000000	0.00000000000000	0.00000000000000	0.00000000000000	0.00000000000000	0.00000000000000	0.00000000000000	14.39416900000000	0.00000000000000	0.00000000000000	0.00000000000000	0.00000000000000	
15.01161200000000	45.77070200000000	758.75406199999998	49.03945100000000	0.26223000000000	0.00000000000000	0.11508800000000	0.00000000000000	0.00000000000000	0.00000000000000	0.00000000000000	0.00000000000000	0.00000000000000	0.00000000000000	14.44406800000000	0.00000000000000	0.00000000000000	0.00000000000000	0.00000000000000	
15.01327500000000	45.27817700000000	760.84941500000002	49.11274400000000	0.26169000000000	0.00000000000000	0.11506900000000	0.00000000000000	0.00000000000000	0.00000000000000	0.00000000000000	0.00000000000000	0.00000000000000	0.00000000000000	14.49533500000000	0.00000000000000	0.00000000000000	0.00000000000000	0.00000000000000	
15.01494600000000	44.79420300000000	762.84328700000003	49.18840400000000	0.26116500000000	0.00000000000000	0.11505200000000	0.00000000000000	0.00000000000000	0.00000000000000	0.00000000000000	0.00000000000000	0.00000000000000	0.00000000000000	14.54776600000000	0.00000000000000	0.00000000000000	0.00000000000000	0.00000000000000	
15.01660700000000	44.31835400000000	764.73315900000000	49.26604000000000	0.26065400000000	0.00000000000000	0.11503700000000	0.00000000000000	0.00000000000000	0.00000000000000	0.00000000000000	0.00000000000000	0.00000000000000	0.00000000000000	14.60114200000000	0.00000000000000	0.00000000000000	0.00000000000000	0.00000000000000	
15.01828100000000	43.85015000000000	766.51664800000003	49.34521800000000	0.26015400000000	0.00000000000000	0.11502500000000	0.00000000000000	0.00000000000000	0.00000000000000	0.00000000000000	0.00000000000000	0.00000000000000	0.00000000000000	14.65522500000000	0.00000000000000	0.00000000000000	0.00000000000000	0.00000000000000	
15.01994000000000	43.38905300000000	768.19151299999999	49.42546100000000	0.25966100000000	0.00000000000000	0.11501500000000	0.00000000000000	0.00000000000000	0.00000000000000	0.00000000000000	0.00000000000000	0.00000000000000	0.00000000000000	14.70976200000000	0.00000000000000	0.00000000000000	0.00000000000000	0.00000000000000	
15.02160600000000	42.93448000000000	769.75567999999998	49.50625600000000	0.25917400000000	0.00000000000000	0.11500700000000	0.00000000000000	0.00000000000000	0.00000000000000	0.00000000000000	0.00000000000000	0.00000000000000	0.00000000000000	14.76448700000000	0.00000000000000	0.00000000000000	0.00000000000000	0.00000000000000	
15.02327900000000	42.48580900000000	771.20725400000003	49.58706000000000	0.25868800000000	0.00000000000000	0.11500300000000	0.00000000000000	0.00000000000000	0.00000000000000	0.00000000000000	0.00000000000000	0.00000000000000	0.00000000000000	14.81912600000000	0.00000000000000	0.00000000000000	0.00000000000000	0.00000000000000	
15.02494400000000	42.04238600000000	772.54453100000001	49.66730400000000	0.25820200000000	0.00000000000000	0.11500000000000	0.00000000000000	0.00000000000000	0.00000000000000	0.00000000000000	0.00000000000000	0.00000000000000	0.00000000000000	14.87339300000000	0.00000000000000	0.00000000000000	0.00000000000000	0.00000000000000	
15.02660800000000	41.60353200000000	773.76601500000004	49.74640000000000	0.25771300000000	0.00000000000000	0.11500100000000	0.00000000000000	0.00000000000000	0.00000000000000	0.00000000000000	0.00000000000000	0.00000000000000	0.00000000000000	14.92699900000000	0.00000000000000	0.00000000000000	0.00000000000000	0.00000000000000	
15.02828100000000	41.16855300000000	774.87042699999995	49.82374300000000	0.25721700000000	0.00000000000000	0.11500400000000	0.00000000000000	0.00000000000000	0.00000000000000	0.00000000000000	0.00000000000000	0.00000000000000	0.00000000000000	14.97965100000000	0.00000000000000	0.00000000000000	0.00000000000000	0.00000000000000	
15.02994400000000	40.73674300000000	775.85671800000000	49.89872100000000	0.25671300000000	0.00000000000000	0.11500900000000	0.00000000000000	0.00000000000000	0.00000000000000	0.00000000000000	0.00000000000000	0.00000000000000	0.00000000000000	15.03105400000000	0.00000000000000	0.00000000000000	0.00000000000000	0.00000000000000	
15.03160700000000	40.30739400000000	776.72407299999998	49.97071600000000	0.25619700000000	0.00000000000000	0.11501800000000	0.00000000000000	0.00000000000000	0.00000000000000	0.00000000000000	0.00000000000000	0.00000000000000	0.00000000000000	15.08091200000000	0.00000000000000	0.00000000000000	0.00000000000000	0.00000000000000	
15.03328200000000	39.87980400000000	777.47192600000005	50.03911100000000	0.25566800000000	0.00000000000000	0.11502900000000	0.00000000000000	0.00000000000000	0.00000000000000	0.00000000000000	0.00000000000000	0.00000000000000	0.00000000000000	15.12893400000000	0.00000000000000	0.00000000000000	0.00000000000000	0.00000000000000	
15.03494500000000	39.45328000000000	778.09996400000000	50.10329500000000	0.25512200000000	0.00000000000000	0.11504300000000	0.00000000000000	0.00000000000000	0.00000000000000	0.00000000000000	0.00000000000000	0.00000000000000	0.00000000000000	15.17483400000000	0.00000000000000	0.00000000000000	0.00000000000000	0.00000000000000	
15.03660900000000	39.02714800000000	778.60813099999996	50.16266500000000	0.25455900000000	0.00000000000000	0.11505900000000	0.00000000000000	0.00000000000000	0.00000000000000	0.00000000000000	0.00000000000000	0.00000000000000	0.00000000000000	15.21833100000000	0.00000000000000	0.00000000000000	0.00000000000000	0.00000000000000	
15.03827500000000	38.60075700000000	778.99663399999997	50.21663300000000	0.25397500000000	0.00000000000000	0.11507800000000	0.00000000000000	0.00000000000000	0.00000000000000	0.00000000000000	0.00000000000000	0.00000000000000	0.00000000000000	15.25915400000000	0.00000000000000	0.00000000000000	0.00000000000000	0.00000000000000	
15.03994400000000	38.17348700000000	779.26594399999999	50.26463000000000	0.25336800000000	0.00000000000000	0.11510000000000	0.00000000000000	0.00000000000000	0.00000000000000	0.00000000000000	0.00000000000000	0.00000000000000	0.00000000000000	15.29704300000000	0.00000000000000	0.00000000000000	0.00000000000000	0.00000000000000	
15.04161000000000	37.74475100000000	779.41680099999996	50.30610900000000	0.25273800000000	0.00000000000000	0.11512400000000	0.00000000000000	0.00000000000000	0.00000000000000	0.00000000000000	0.00000000000000	0.00000000000000	0.00000000000000	15.33174900000000	0.00000000000000	0.00000000000000	0.00000000000000	0.00000000000000	
15.04327800000000	37.31400500000000	779.45021199999996	50.34054900000000	0.25208100000000	0.00000000000000	0.11515100000000	0.00000000000000	0.00000000000000	0.00000000000000	0.00000000000000	0.00000000000000	0.00000000000000	0.00000000000000	15.36303800000000	0.00000000000000	0.00000000000000	0.00000000000000	0.00000000000000	
15.04494000000000	36.88074800000000	779.36744699999997	50.36745700000000	0.25139800000000	0.00000000000000	0.11518000000000	0.00000000000000	0.00000000000000	0.00000000000000	0.00000000000000	0.00000000000000	0.00000000000000	0.00000000000000	15.39068900000000	0.00000000000000	0.00000000000000	0.00000000000000	0.00000000000000	
15.04661000000000	36.44452800000000	779.17004599999996	50.38637200000000	0.25068600000000	0.00000000000000	0.11521100000000	0.00000000000000	0.00000000000000	0.00000000000000	0.00000000000000	0.00000000000000	0.00000000000000	0.00000000000000	15.41450100000000	0.00000000000000	0.00000000000000	0.00000000000000	0.00000000000000	
